<svg width="136" height="32" viewBox="0 0 136 32" fill="none" xmlns="http://www.w3.org/2000/svg">
<path d="M21.5203 6.42009V6.95594C20.9188 6.9738 20.4677 7.04524 20.167 7.17027C19.8663 7.27744 19.6628 7.49178 19.5567 7.81329C19.4683 8.11693 19.424 8.59919 19.424 9.26007V22.549C19.424 23.192 19.4683 23.6743 19.5567 23.9958C19.6628 24.3173 19.8663 24.5317 20.167 24.6388C20.4677 24.746 20.9188 24.8175 21.5203 24.8532V25.389C21.078 25.3533 20.5297 25.3354 19.8751 25.3354C19.2205 25.3175 18.5571 25.3086 17.885 25.3086C17.142 25.3086 16.4433 25.3175 15.7887 25.3354C15.1341 25.3354 14.6122 25.3533 14.2231 25.389V24.8532C14.8245 24.8175 15.2756 24.746 15.5764 24.6388C15.8948 24.5317 16.1071 24.3173 16.2132 23.9958C16.3194 23.6743 16.3724 23.192 16.3724 22.549V7.89367L16.5051 7.94725L9.97737 25.4962H9.5528L2.70663 8.1348V21.8524C2.70663 22.6026 2.7597 23.192 2.86584 23.6207C2.97198 24.0315 3.20196 24.3262 3.55576 24.5049C3.90957 24.6835 4.44913 24.7996 5.17443 24.8532V25.389C4.83831 25.3533 4.4049 25.3354 3.87419 25.3354C3.36118 25.3175 2.87468 25.3086 2.41473 25.3086C1.97247 25.3086 1.53022 25.3175 1.08796 25.3354C0.645693 25.3354 0.283046 25.3533 0 25.389V24.8532C0.583782 24.7996 1.02605 24.6924 1.32678 24.5317C1.62751 24.353 1.83095 24.0583 1.9371 23.6475C2.04324 23.2367 2.09631 22.6741 2.09631 21.9596V9.26007C2.09631 8.59919 2.04324 8.11693 1.9371 7.81329C1.83095 7.49178 1.62751 7.27744 1.32678 7.17027C1.02605 7.04524 0.583782 6.9738 0 6.95594V6.42009C0.283046 6.43796 0.645693 6.45581 1.08796 6.47368C1.53022 6.49154 1.97247 6.50047 2.41473 6.50047C2.92775 6.50047 3.44078 6.49154 3.9538 6.47368C4.48451 6.45581 4.93561 6.43796 5.30711 6.42009L11.1715 21.6381L10.6673 21.9864L16.4255 6.50047C16.6555 6.50047 16.8944 6.50047 17.142 6.50047C17.3896 6.50047 17.6374 6.50047 17.885 6.50047C18.5571 6.50047 19.2205 6.49154 19.8751 6.47368C20.5297 6.45581 21.078 6.43796 21.5203 6.42009ZM29.3767 11.1891C30.9335 11.1891 32.1541 11.6624 33.0386 12.6091C33.9232 13.5558 34.3654 15.0561 34.3654 17.1102H25.2106L25.1575 16.6011H31.5526C31.5703 15.7259 31.4995 14.9222 31.3403 14.1898C31.1811 13.4397 30.9335 12.8413 30.5973 12.3948C30.2613 11.9482 29.819 11.725 29.2705 11.725C28.51 11.725 27.8466 12.1358 27.2804 12.9574C26.7321 13.7612 26.3959 15.0561 26.272 16.8423L26.3516 16.9762C26.334 17.2262 26.3163 17.5032 26.2986 17.8068C26.281 18.0926 26.272 18.3783 26.272 18.6641C26.272 19.8966 26.4578 20.9326 26.8293 21.7721C27.2008 22.6115 27.6874 23.2456 28.2887 23.6743C28.8902 24.0851 29.5006 24.2905 30.1197 24.2905C30.5973 24.2905 31.0574 24.219 31.4995 24.0762C31.9596 23.9154 32.3929 23.6564 32.7998 23.2992C33.2068 22.9241 33.5693 22.4151 33.8877 21.7721L34.4184 21.9864C34.2062 22.5937 33.8789 23.192 33.4366 23.7815C32.9945 24.3709 32.4283 24.8532 31.7383 25.2283C31.0484 25.5854 30.2436 25.7641 29.3236 25.7641C28.0854 25.7641 27.0062 25.4873 26.0863 24.9335C25.1665 24.362 24.4588 23.5492 23.9634 22.4954C23.4682 21.4417 23.2204 20.1913 23.2204 18.7445C23.2204 17.1549 23.477 15.7974 23.99 14.6721C24.5031 13.5468 25.2196 12.6895 26.1393 12.1C27.077 11.4928 28.156 11.1891 29.3767 11.1891ZM48.612 4.38388V22.4686C48.612 23.2724 48.7446 23.8707 49.01 24.2637C49.2929 24.6388 49.7971 24.8264 50.5225 24.8264V25.389C49.9741 25.3354 49.4256 25.3086 48.8772 25.3086C48.2758 25.3086 47.7098 25.3354 47.179 25.389C46.6659 25.4426 46.1883 25.5409 45.7461 25.6837V7.59895C45.7461 6.79518 45.6045 6.20575 45.3216 5.83066C45.0562 5.4377 44.5608 5.24123 43.8356 5.24123V4.6786C44.4016 4.73218 44.9501 4.75897 45.4808 4.75897C46.0646 4.75897 46.6218 4.73218 47.1525 4.6786C47.6832 4.60714 48.1697 4.50892 48.612 4.38388ZM42.6415 11.1891C43.4198 11.1891 44.1275 11.3588 44.7643 11.6982C45.4187 12.0375 45.8788 12.6091 46.1442 13.4129L45.8257 13.7076C45.578 13.0646 45.2154 12.6002 44.7378 12.3144C44.2601 12.0107 43.7205 11.8589 43.1191 11.8589C42.1108 11.8589 41.2882 12.4037 40.6513 13.4932C40.0145 14.5649 39.7048 16.2261 39.7226 18.4766C39.7226 19.9591 39.8463 21.1737 40.0941 22.1203C40.3417 23.0492 40.7044 23.7368 41.182 24.1834C41.6772 24.6299 42.27 24.8532 42.9599 24.8532C43.6498 24.8532 44.2689 24.5584 44.8174 23.969C45.3834 23.3796 45.7196 22.5311 45.8257 21.4237L46.0646 21.9864C45.8876 23.2009 45.463 24.1386 44.7908 24.7996C44.1185 25.4426 43.2163 25.7641 42.0842 25.7641C41.0051 25.7641 40.0498 25.505 39.2184 24.9871C38.4046 24.4513 37.7765 23.6475 37.3344 22.5758C36.892 21.4862 36.671 20.1198 36.671 18.4766C36.671 16.8512 36.9363 15.5027 37.467 14.431C38.0153 13.3414 38.7407 12.5287 39.643 11.9929C40.5452 11.457 41.5446 11.1891 42.6415 11.1891ZM54.9516 4.81256C55.4999 4.81256 55.96 4.99118 56.3315 5.3484C56.703 5.68778 56.8887 6.11645 56.8887 6.63443C56.8887 7.15241 56.703 7.59003 56.3315 7.94725C55.96 8.28662 55.4999 8.4563 54.9516 8.4563C54.4032 8.4563 53.9433 8.28662 53.5718 7.94725C53.2003 7.59003 53.0145 7.15241 53.0145 6.63443C53.0145 6.11645 53.2003 5.68778 53.5718 5.3484C53.9433 4.99118 54.4032 4.81256 54.9516 4.81256ZM56.5438 11.2695V22.8973C56.5438 23.6475 56.6852 24.1566 56.9683 24.4245C57.269 24.6924 57.7644 24.8264 58.4543 24.8264V25.389C58.1535 25.3711 57.6848 25.3533 57.0479 25.3354C56.4287 25.2998 55.7918 25.2818 55.1374 25.2818C54.5181 25.2818 53.8813 25.2998 53.2268 25.3354C52.5722 25.3533 52.0858 25.3711 51.7674 25.389V24.8264C52.4573 24.8264 52.9437 24.6924 53.2268 24.4245C53.5275 24.1566 53.6779 23.6475 53.6779 22.8973V14.4846C53.6779 13.6808 53.5453 13.0914 53.2799 12.7163C53.0145 12.3233 52.5104 12.1268 51.7674 12.1268V11.5642C52.3334 11.6178 52.8819 11.6446 53.4126 11.6446C54.0139 11.6446 54.5712 11.6178 55.0843 11.5642C55.615 11.4928 56.1015 11.3945 56.5438 11.2695ZM98.561 11.2695V22.4954C98.561 23.2992 98.6937 23.8975 98.959 24.2905C99.2421 24.6656 99.7463 24.8532 100.472 24.8532V25.4158C99.9231 25.3622 99.3748 25.3354 98.8263 25.3354C98.2426 25.3354 97.6853 25.3622 97.1546 25.4158C96.6239 25.4694 96.1375 25.5677 95.6952 25.7105V22.7902C95.2528 23.8618 94.6337 24.6299 93.8377 25.0943C93.0593 25.5409 92.2367 25.7641 91.3699 25.7641C90.7153 25.7641 90.158 25.6658 89.6981 25.4694C89.2382 25.2907 88.8578 25.0496 88.5571 24.746C88.2387 24.3888 88.0176 23.9333 87.8937 23.3796C87.7698 22.8081 87.7079 22.0936 87.7079 21.2362V14.4846C87.7079 13.6808 87.5753 13.0914 87.3099 12.7163C87.0446 12.3233 86.5404 12.1268 85.7974 12.1268V11.5642C86.3634 11.6178 86.9119 11.6446 87.4426 11.6446C88.0264 11.6446 88.5836 11.6178 89.1143 11.5642C89.645 11.4928 90.1315 11.3945 90.5738 11.2695V21.9864C90.5738 22.5043 90.6091 22.9777 90.6799 23.4064C90.7507 23.8351 90.9188 24.1745 91.1841 24.4245C91.4495 24.6745 91.874 24.7996 92.4578 24.7996C93.0769 24.7996 93.6254 24.612 94.103 24.2369C94.5984 23.8618 94.9875 23.3528 95.2706 22.7098C95.5537 22.0668 95.6952 21.3434 95.6952 20.5396V14.4846C95.6952 13.6808 95.5625 13.0914 95.2971 12.7163C95.0318 12.3233 94.5276 12.1268 93.7846 12.1268V11.5642C94.3506 11.6178 94.8991 11.6446 95.4298 11.6446C96.0136 11.6446 96.5708 11.6178 97.1015 11.5642C97.6322 11.4928 98.1187 11.3945 98.561 11.2695ZM108.323 11.1891C109.879 11.1891 111.1 11.6624 111.984 12.6091C112.869 13.5558 113.311 15.0561 113.311 17.1102H104.157L104.103 16.6011H110.499C110.516 15.7259 110.445 14.9222 110.286 14.1898C110.127 13.4397 109.879 12.8413 109.543 12.3948C109.207 11.9482 108.765 11.725 108.216 11.725C107.456 11.725 106.792 12.1358 106.226 12.9574C105.678 13.7612 105.342 15.0561 105.218 16.8423L105.298 16.9762C105.28 17.2262 105.262 17.5032 105.244 17.8068C105.227 18.0926 105.218 18.3783 105.218 18.6641C105.218 19.8966 105.404 20.9326 105.775 21.7721C106.147 22.6115 106.633 23.2456 107.235 23.6743C107.836 24.0851 108.446 24.2905 109.066 24.2905C109.543 24.2905 110.003 24.219 110.445 24.0762C110.905 23.9154 111.339 23.6564 111.746 23.2992C112.152 22.9241 112.515 22.4151 112.834 21.7721L113.364 21.9864C113.152 22.5937 112.825 23.192 112.383 23.7815C111.94 24.3709 111.374 24.8532 110.684 25.2283C109.994 25.5854 109.189 25.7641 108.27 25.7641C107.031 25.7641 105.952 25.4873 105.032 24.9335C104.112 24.362 103.405 23.5492 102.909 22.4954C102.414 21.4417 102.166 20.1913 102.166 18.7445C102.166 17.1549 102.423 15.7974 102.936 14.6721C103.449 13.5468 104.165 12.6895 105.085 12.1C106.023 11.4928 107.102 11.1891 108.323 11.1891ZM120.075 11.1891C120.782 11.1891 121.393 11.3052 121.906 11.5374C122.436 11.7517 122.817 11.9482 123.047 12.1268C123.63 12.5912 123.993 12.2876 124.135 11.2159H124.718C124.683 11.716 124.657 12.3233 124.639 13.0378C124.621 13.7344 124.612 14.6632 124.612 15.8242H124.028C123.922 15.1633 123.737 14.5203 123.471 13.8951C123.224 13.27 122.852 12.752 122.357 12.3412C121.879 11.9304 121.251 11.725 120.473 11.725C119.889 11.725 119.403 11.8946 119.013 12.234C118.624 12.5555 118.429 13.0378 118.429 13.6808C118.429 14.2166 118.589 14.681 118.907 15.074C119.226 15.467 119.632 15.833 120.128 16.1725C120.641 16.5119 121.189 16.8779 121.773 17.271C122.428 17.7175 123.011 18.164 123.524 18.6106C124.055 19.0392 124.471 19.5215 124.771 20.0573C125.09 20.5932 125.249 21.2183 125.249 21.9328C125.249 22.7545 125.028 23.4511 124.586 24.0226C124.161 24.5941 123.595 25.0318 122.887 25.3354C122.18 25.6213 121.401 25.7641 120.552 25.7641C120.128 25.7641 119.73 25.7194 119.358 25.6301C118.987 25.5586 118.642 25.4605 118.323 25.3354C118.129 25.2283 117.934 25.1211 117.74 25.0139C117.563 24.8888 117.386 24.7728 117.209 24.6656C117.032 24.5405 116.873 24.5584 116.731 24.7192C116.59 24.88 116.484 25.1658 116.413 25.5765H115.829C115.864 25.005 115.891 24.3084 115.909 23.4868C115.926 22.6651 115.935 21.5756 115.935 20.2181H116.519C116.643 21.2005 116.829 22.0668 117.076 22.8169C117.324 23.5671 117.686 24.1566 118.164 24.5852C118.66 24.996 119.332 25.2015 120.181 25.2015C120.517 25.2015 120.853 25.13 121.189 24.9871C121.525 24.8264 121.799 24.5764 122.012 24.2369C122.242 23.8975 122.357 23.442 122.357 22.8705C122.357 22.0847 122.083 21.4417 121.534 20.9415C121.003 20.4236 120.314 19.8787 119.464 19.3072C118.863 18.8785 118.288 18.4587 117.74 18.0479C117.209 17.6193 116.775 17.1459 116.439 16.6279C116.103 16.0921 115.935 15.458 115.935 14.7257C115.935 13.9219 116.121 13.261 116.492 12.7431C116.882 12.2251 117.395 11.8411 118.031 11.591C118.668 11.3231 119.349 11.1891 120.075 11.1891ZM131.781 7.14348V11.591H135.443V12.1268H131.781V22.6562C131.781 23.3885 131.914 23.9066 132.179 24.2101C132.444 24.5137 132.825 24.6656 133.32 24.6656C133.78 24.6656 134.187 24.4781 134.541 24.103C134.912 23.7279 135.23 23.0937 135.496 22.2007L136 22.3883C135.788 23.3349 135.407 24.1386 134.859 24.7996C134.328 25.4426 133.541 25.7641 132.497 25.7641C131.896 25.7641 131.392 25.6837 130.985 25.523C130.578 25.3801 130.224 25.1658 129.923 24.88C129.534 24.4692 129.269 23.9779 129.127 23.4064C128.986 22.8349 128.915 22.0756 128.915 21.129V12.1268H126.474V11.591H128.915V7.67933C129.463 7.66146 129.976 7.61682 130.454 7.54537C130.932 7.45606 131.374 7.3221 131.781 7.14348Z" fill="#F5FFFF"/>
<path d="M85.2321 25.7758L85.7893 25.9868C85.5571 27.0652 85.2553 27.9678 84.8838 28.6945C84.5123 29.4447 84.0595 30.0425 83.5255 30.4879C83.0843 30.8864 82.4807 31.2381 81.7145 31.5428C80.9482 31.8476 80.0079 32 78.8934 32C77.6628 32 76.4554 31.789 75.2713 31.367C74.1104 30.9685 72.903 30.4762 71.6492 29.8901C70.4186 29.3275 69.0719 28.7883 67.6091 28.2725C67.4466 28.2256 67.2957 28.1787 67.1564 28.1319C67.0171 28.085 66.8894 28.0498 66.7733 28.0264C66.3321 28.2139 65.8561 28.3546 65.3453 28.4483C64.8345 28.5656 64.3469 28.6242 63.8826 28.6242C63.4182 28.6242 63.0351 28.5538 62.7332 28.4132C62.4314 28.296 62.2805 28.1084 62.2805 27.8505C62.2805 27.3113 62.9074 27.0417 64.1612 27.0417C64.9738 27.0417 65.8445 27.159 66.7733 27.3934C67.6324 27.159 68.3638 26.8894 68.9674 26.5846C69.5711 26.3033 70.198 26.0337 70.8481 25.7758C71.4983 25.5179 72.2761 25.3538 73.1816 25.2835L73.2164 25.8461C72.5199 25.9165 71.9046 26.0454 71.3706 26.233C70.8598 26.4439 70.3489 26.6667 69.8381 26.9011C69.3273 27.1355 68.712 27.3582 67.9923 27.5692C69.3157 27.7568 70.674 27.956 72.0671 28.167C73.4602 28.4015 74.7837 28.5773 76.0375 28.6945C77.2913 28.8352 78.3826 28.882 79.3113 28.8352C80.8902 28.7883 82.144 28.5187 83.0727 28.0264C84.0015 27.5575 84.7213 26.8073 85.2321 25.7758ZM72.2413 0C74.5167 0 76.5135 0.504031 78.2317 1.51209C79.9731 2.52015 81.3197 3.97363 82.2717 5.87253C83.2237 7.74798 83.6996 10.0337 83.6996 12.7297C83.6996 15.3553 83.212 17.6527 82.2369 19.622C81.2617 21.5912 79.9034 23.1267 78.162 24.2286C76.4206 25.3304 74.4354 25.8813 72.2064 25.8813C69.9078 25.8813 67.8994 25.3773 66.1812 24.3692C64.463 23.3612 63.128 21.9077 62.176 20.0088C61.224 18.1099 60.748 15.8242 60.748 13.1516C60.748 10.526 61.2356 8.22857 62.2108 6.25934C63.2092 4.29011 64.5675 2.75458 66.2857 1.65275C68.0039 0.550917 69.9891 0 72.2413 0ZM72.1019 0.632968C70.6624 0.632968 69.4086 1.16044 68.3405 2.21539C67.2725 3.27033 66.4482 4.72381 65.8678 6.57582C65.2873 8.42784 64.9971 10.5729 64.9971 13.011C64.9971 15.496 65.3221 17.6645 65.9722 19.5165C66.6224 21.3451 67.5047 22.7634 68.6192 23.7714C69.7337 24.756 70.9758 25.2483 72.3457 25.2483C73.7853 25.2483 75.0275 24.7209 76.0723 23.6659C77.1404 22.611 77.9646 21.1575 78.5451 19.3055C79.1488 17.43 79.4506 15.285 79.4506 12.8703C79.4506 10.3619 79.114 8.19341 78.4406 6.36484C77.7905 4.53626 76.9082 3.12967 75.7937 2.14506C74.7024 1.137 73.4718 0.632968 72.1019 0.632968Z" fill="#75DAB4"/>
</svg>
